<?xml version="1.0" standalone="no"?>
<!DOCTYPE svg PUBLIC "-//W3C//DTD SVG 20010904//EN"
 "http://www.w3.org/TR/2001/REC-SVG-20010904/DTD/svg10.dtd">
<svg version="1.0" xmlns="http://www.w3.org/2000/svg"
 width="50.000000pt" height="50.000000pt" viewBox="0 0 32.000000 32.000000"
 preserveAspectRatio="xMidYMid meet">

<g transform="translate(0.000000,32.000000) scale(0.100000,-0.100000)"
fill="#FFD700" stroke="none">
<path d="M116 269 c-68 -54 -84 -156 -32 -208 22 -21 36 -26 77 -26 45 0 54 4
80 33 35 39 38 85 9 141 -22 44 -64 81 -90 81 -10 0 -29 -9 -44 -21z m92 -34
c69 -78 42 -185 -48 -185 -49 0 -90 41 -90 91 0 51 55 129 91 129 9 0 31 -16
47 -35z"/>
</g>
</svg>
